<mxfile host="65bd71144e">
    <diagram id="1wDEzimC1mVASfkiNfk8" name="第 1 页">
        <mxGraphModel dx="1022" dy="418" grid="1" gridSize="10" guides="1" tooltips="1" connect="1" arrows="1" fold="1" page="1" pageScale="1" pageWidth="827" pageHeight="1169" math="0" shadow="0">
            <root>
                <mxCell id="0"/>
                <mxCell id="1" parent="0"/>
                <mxCell id="2" value="" style="shape=cylinder3;whiteSpace=wrap;html=1;boundedLbl=1;backgroundOutline=1;size=15;align=left;" vertex="1" parent="1">
                    <mxGeometry x="300" y="70" width="200" height="310" as="geometry"/>
                </mxCell>
                <mxCell id="12" style="edgeStyle=none;html=1;exitX=1;exitY=0.5;exitDx=0;exitDy=0;entryX=0;entryY=1;entryDx=0;entryDy=0;" edge="1" parent="1" source="3">
                    <mxGeometry relative="1" as="geometry">
                        <mxPoint x="570" y="120" as="targetPoint"/>
                    </mxGeometry>
                </mxCell>
                <mxCell id="18" style="edgeStyle=none;html=1;exitX=0;exitY=0.5;exitDx=0;exitDy=0;" edge="1" parent="1" source="3">
                    <mxGeometry relative="1" as="geometry">
                        <mxPoint x="240" y="150" as="targetPoint"/>
                    </mxGeometry>
                </mxCell>
                <mxCell id="3" value="物料1" style="rounded=1;whiteSpace=wrap;html=1;" vertex="1" parent="1">
                    <mxGeometry x="350" y="120" width="110" height="30" as="geometry"/>
                </mxCell>
                <mxCell id="19" style="edgeStyle=none;html=1;exitX=0;exitY=0.5;exitDx=0;exitDy=0;" edge="1" parent="1" source="5">
                    <mxGeometry relative="1" as="geometry">
                        <mxPoint x="240" y="190" as="targetPoint"/>
                    </mxGeometry>
                </mxCell>
                <mxCell id="5" value="物料2" style="rounded=1;whiteSpace=wrap;html=1;" vertex="1" parent="1">
                    <mxGeometry x="350" y="160" width="110" height="30" as="geometry"/>
                </mxCell>
                <mxCell id="13" style="edgeStyle=none;html=1;exitX=1;exitY=0.75;exitDx=0;exitDy=0;" edge="1" parent="1" source="6">
                    <mxGeometry relative="1" as="geometry">
                        <mxPoint x="570" y="212.3780487804878" as="targetPoint"/>
                    </mxGeometry>
                </mxCell>
                <mxCell id="20" style="edgeStyle=none;html=1;exitX=0;exitY=0.5;exitDx=0;exitDy=0;" edge="1" parent="1" source="6">
                    <mxGeometry relative="1" as="geometry">
                        <mxPoint x="240" y="210" as="targetPoint"/>
                    </mxGeometry>
                </mxCell>
                <mxCell id="6" value="物料3" style="rounded=1;whiteSpace=wrap;html=1;" vertex="1" parent="1">
                    <mxGeometry x="350" y="210" width="110" height="30" as="geometry"/>
                </mxCell>
                <mxCell id="7" value="物料4" style="rounded=1;whiteSpace=wrap;html=1;" vertex="1" parent="1">
                    <mxGeometry x="350" y="260" width="110" height="30" as="geometry"/>
                </mxCell>
                <mxCell id="14" style="edgeStyle=none;html=1;exitX=1;exitY=0.75;exitDx=0;exitDy=0;" edge="1" parent="1" source="8">
                    <mxGeometry relative="1" as="geometry">
                        <mxPoint x="560" y="250" as="targetPoint"/>
                    </mxGeometry>
                </mxCell>
                <mxCell id="8" value="物料5" style="rounded=1;whiteSpace=wrap;html=1;" vertex="1" parent="1">
                    <mxGeometry x="350" y="310" width="110" height="30" as="geometry"/>
                </mxCell>
                <mxCell id="9" value="&lt;div style=&quot;&quot;&gt;&lt;/div&gt;" style="rounded=1;whiteSpace=wrap;html=1;align=center;" vertex="1" parent="1">
                    <mxGeometry x="580" y="80" width="190" height="230" as="geometry"/>
                </mxCell>
                <mxCell id="10" value="Text元素属性面板" style="text;html=1;strokeColor=none;fillColor=none;align=center;verticalAlign=middle;whiteSpace=wrap;rounded=0;" vertex="1" parent="1">
                    <mxGeometry x="625" y="50" width="110" height="20" as="geometry"/>
                </mxCell>
                <mxCell id="11" value="组件集合：&lt;br&gt;pick([物料1，物料3，物料5])" style="text;html=1;strokeColor=none;fillColor=none;align=center;verticalAlign=middle;whiteSpace=wrap;rounded=0;" vertex="1" parent="1">
                    <mxGeometry x="590" y="90" width="180" height="30" as="geometry"/>
                </mxCell>
                <mxCell id="15" value="&lt;div style=&quot;&quot;&gt;&lt;/div&gt;" style="rounded=1;whiteSpace=wrap;html=1;align=center;" vertex="1" parent="1">
                    <mxGeometry x="40" y="110" width="190" height="230" as="geometry"/>
                </mxCell>
                <mxCell id="16" value="Picture元素属性面板" style="text;html=1;strokeColor=none;fillColor=none;align=center;verticalAlign=middle;whiteSpace=wrap;rounded=0;" vertex="1" parent="1">
                    <mxGeometry x="67.5" y="80" width="135" height="20" as="geometry"/>
                </mxCell>
                <mxCell id="17" value="组件集合：&lt;br&gt;pick([物料1，物料2，物料3])" style="text;html=1;strokeColor=none;fillColor=none;align=center;verticalAlign=middle;whiteSpace=wrap;rounded=0;" vertex="1" parent="1">
                    <mxGeometry x="40" y="120" width="180" height="30" as="geometry"/>
                </mxCell>
                <mxCell id="22" value="属性面板物料库" style="text;html=1;strokeColor=none;fillColor=none;align=center;verticalAlign=middle;whiteSpace=wrap;rounded=0;" vertex="1" parent="1">
                    <mxGeometry x="360" y="30" width="60" height="30" as="geometry"/>
                </mxCell>
                <mxCell id="ICHwK3SPFu4nGpE5TtZQ-23" value="属性面板：提供物料排序功能，使用者可以自定义物料展示顺序" style="text;strokeColor=none;align=center;fillColor=none;html=1;verticalAlign=middle;whiteSpace=wrap;rounded=0;" vertex="1" parent="1">
                    <mxGeometry x="40" y="360" width="210" height="60" as="geometry"/>
                </mxCell>
            </root>
        </mxGraphModel>
    </diagram>
</mxfile>